# xmcd
#
# Track frame offsets: 
#        150
#        21945
#        42001
#        70041
#        92301
#        113783
#        136074
#        147109
#        170606
#        189442
#        204761
#        224411
#
# Disc length: 3344 seconds
#
# Revision: 0
# Processed by: cddbd v1.5.1PL0 Copyright (c) Steve Scherf et al.
# Submitted via: ExactAudioCopy v0.95a3
#
DISCID=9b0d0e0c
DTITLE=Junior Wells - Everybody´s Gettin´Some
DYEAR=1995
DGENRE=Blues
TTITLE0=Sweet sixteen
TTITLE1=Everybody´s gettin´some
TTITLE2=I can´t stand no signifyin´
TTITLE3=Get down
TTITLE4=Keep on steppin´
TTITLE5=Shaky ground
TTITLE6=You´re tough enough
TTITLE7=Use me
TTITLE8=Trying to get over you
TTITLE9=Last hand of the night
TTITLE10=Don´t you lie to me
TTITLE11=That´s what love will make you do
EXTD=
EXTT0=
EXTT1=
EXTT2=
EXTT3=
EXTT4=
EXTT5=
EXTT6=
EXTT7=
EXTT8=
EXTT9=
EXTT10=
EXTT11=
PLAYORDER=
